<svg width="101" height="20" viewBox="0 0 101 20" fill="none" xmlns="http://www.w3.org/2000/svg">
<path d="M14.5391 10.2695C14.5391 12.1992 14.168 13.8125 13.4258 15.1094C12.6914 16.3984 11.625 17.3711 10.2266 18.0273C8.82812 18.6758 7.14453 19 5.17578 19H0.324219V1.86719H5.70312C7.5 1.86719 9.05859 2.1875 10.3789 2.82812C11.6992 3.46094 12.7227 4.40234 13.4492 5.65234C14.1758 6.89453 14.5391 8.43359 14.5391 10.2695ZM10.7656 10.3633C10.7656 9.09766 10.5781 8.05859 10.2031 7.24609C9.83594 6.42578 9.28906 5.82031 8.5625 5.42969C7.84375 5.03906 6.95312 4.84375 5.89062 4.84375H3.95703V16H5.51562C7.28906 16 8.60547 15.5273 9.46484 14.582C10.332 13.6367 10.7656 12.2305 10.7656 10.3633ZM28.2031 14.2422C28.2031 15.2578 27.957 16.1406 27.4648 16.8906C26.9727 17.6406 26.2539 18.2188 25.3086 18.625C24.3711 19.0312 23.2305 19.2344 21.8867 19.2344C21.293 19.2344 20.7109 19.1953 20.1406 19.1172C19.5781 19.0391 19.0352 18.9258 18.5117 18.7773C17.9961 18.6211 17.5039 18.4297 17.0352 18.2031V14.8281C17.8477 15.1875 18.6914 15.5117 19.5664 15.8008C20.4414 16.0898 21.3086 16.2344 22.168 16.2344C22.7617 16.2344 23.2383 16.1562 23.5977 16C23.9648 15.8438 24.2305 15.6289 24.3945 15.3555C24.5586 15.082 24.6406 14.7695 24.6406 14.418C24.6406 13.9883 24.4961 13.6211 24.207 13.3164C23.918 13.0117 23.5195 12.7266 23.0117 12.4609C22.5117 12.1953 21.9453 11.9102 21.3125 11.6055C20.9141 11.418 20.4805 11.1914 20.0117 10.9258C19.543 10.6523 19.0977 10.3203 18.6758 9.92969C18.2539 9.53906 17.9062 9.06641 17.6328 8.51172C17.3672 7.94922 17.2344 7.27734 17.2344 6.49609C17.2344 5.47266 17.4688 4.59766 17.9375 3.87109C18.4062 3.14453 19.0742 2.58984 19.9414 2.20703C20.8164 1.81641 21.8477 1.62109 23.0352 1.62109C23.9258 1.62109 24.7734 1.72656 25.5781 1.9375C26.3906 2.14062 27.2383 2.4375 28.1211 2.82812L26.9492 5.65234C26.1602 5.33203 25.4531 5.08594 24.8281 4.91406C24.2031 4.73438 23.5664 4.64453 22.918 4.64453C22.4648 4.64453 22.0781 4.71875 21.7578 4.86719C21.4375 5.00781 21.1953 5.21094 21.0312 5.47656C20.8672 5.73438 20.7852 6.03516 20.7852 6.37891C20.7852 6.78516 20.9023 7.12891 21.1367 7.41016C21.3789 7.68359 21.7383 7.94922 22.2148 8.20703C22.6992 8.46484 23.3008 8.76562 24.0195 9.10938C24.8945 9.52344 25.6406 9.95703 26.2578 10.4102C26.8828 10.8555 27.3633 11.3828 27.6992 11.9922C28.0352 12.5938 28.2031 13.3438 28.2031 14.2422ZM38.5625 19L34.4375 5.55859H34.332C34.3477 5.87891 34.3711 6.36328 34.4023 7.01172C34.4414 7.65234 34.4766 8.33594 34.5078 9.0625C34.5391 9.78906 34.5547 10.4453 34.5547 11.0312V19H31.3086V1.86719H36.2539L40.3086 14.9688H40.3789L44.6797 1.86719H49.625V19H46.2383V10.8906C46.2383 10.3516 46.2461 9.73047 46.2617 9.02734C46.2852 8.32422 46.3125 7.65625 46.3438 7.02344C46.375 6.38281 46.3984 5.90234 46.4141 5.58203H46.3086L41.8906 19H38.5625ZM65.5742 12.4258C65.5742 13.5195 65.4258 14.4883 65.1289 15.332C64.8398 16.1758 64.4141 16.8906 63.8516 17.4766C63.2969 18.0547 62.625 18.4922 61.8359 18.7891C61.0547 19.0859 60.1719 19.2344 59.1875 19.2344C58.2656 19.2344 57.418 19.0859 56.6445 18.7891C55.8789 18.4922 55.2109 18.0547 54.6406 17.4766C54.0781 16.8906 53.6406 16.1758 53.3281 15.332C53.0234 14.4883 52.8711 13.5195 52.8711 12.4258C52.8711 10.9727 53.1289 9.74219 53.6445 8.73438C54.1602 7.72656 54.8945 6.96094 55.8477 6.4375C56.8008 5.91406 57.9375 5.65234 59.2578 5.65234C60.4844 5.65234 61.5703 5.91406 62.5156 6.4375C63.4688 6.96094 64.2148 7.72656 64.7539 8.73438C65.3008 9.74219 65.5742 10.9727 65.5742 12.4258ZM56.5156 12.4258C56.5156 13.2852 56.6094 14.0078 56.7969 14.5938C56.9844 15.1797 57.2773 15.6211 57.6758 15.918C58.0742 16.2148 58.5938 16.3633 59.2344 16.3633C59.8672 16.3633 60.3789 16.2148 60.7695 15.918C61.168 15.6211 61.457 15.1797 61.6367 14.5938C61.8242 14.0078 61.918 13.2852 61.918 12.4258C61.918 11.5586 61.8242 10.8398 61.6367 10.2695C61.457 9.69141 61.168 9.25781 60.7695 8.96875C60.3711 8.67969 59.8516 8.53516 59.2109 8.53516C58.2656 8.53516 57.5781 8.85938 57.1484 9.50781C56.7266 10.1562 56.5156 11.1289 56.5156 12.4258ZM71.6445 19L66.6523 5.89844H70.3906L72.9219 13.3633C73.0625 13.8008 73.1719 14.2617 73.25 14.7461C73.3359 15.2305 73.3945 15.6641 73.4258 16.0469H73.5195C73.543 15.6328 73.5977 15.1914 73.6836 14.7227C73.7773 14.2539 73.8984 13.8008 74.0469 13.3633L76.5664 5.89844H80.3047L75.3125 19H71.6445ZM85.7656 5.89844V19H82.1914V5.89844H85.7656ZM83.9844 0.765625C84.5156 0.765625 84.9727 0.890625 85.3555 1.14062C85.7383 1.38281 85.9297 1.83984 85.9297 2.51172C85.9297 3.17578 85.7383 3.63672 85.3555 3.89453C84.9727 4.14453 84.5156 4.26953 83.9844 4.26953C83.4453 4.26953 82.9844 4.14453 82.6016 3.89453C82.2266 3.63672 82.0391 3.17578 82.0391 2.51172C82.0391 1.83984 82.2266 1.38281 82.6016 1.14062C82.9844 0.890625 83.4453 0.765625 83.9844 0.765625ZM94.9297 5.65234C96.1406 5.65234 97.1836 5.88672 98.0586 6.35547C98.9336 6.81641 99.6094 7.48828 100.086 8.37109C100.562 9.25391 100.801 10.332 100.801 11.6055V13.3398H92.3516C92.3906 14.3477 92.6914 15.1406 93.2539 15.7188C93.8242 16.2891 94.6133 16.5742 95.6211 16.5742C96.457 16.5742 97.2227 16.4883 97.918 16.3164C98.6133 16.1445 99.3281 15.8867 100.062 15.543V18.3086C99.4141 18.6289 98.7344 18.8633 98.0234 19.0117C97.3203 19.1602 96.4648 19.2344 95.457 19.2344C94.1445 19.2344 92.9805 18.9922 91.9648 18.5078C90.957 18.0234 90.1641 17.2852 89.5859 16.293C89.0156 15.3008 88.7305 14.0508 88.7305 12.543C88.7305 11.0117 88.9883 9.73828 89.5039 8.72266C90.0273 7.69922 90.7539 6.93359 91.6836 6.42578C92.6133 5.91016 93.6953 5.65234 94.9297 5.65234ZM94.9531 8.19531C94.2578 8.19531 93.6797 8.41797 93.2188 8.86328C92.7656 9.30859 92.5039 10.0078 92.4336 10.9609H97.4492C97.4414 10.4297 97.3438 9.95703 97.1562 9.54297C96.9766 9.12891 96.7031 8.80078 96.3359 8.55859C95.9766 8.31641 95.5156 8.19531 94.9531 8.19531Z" fill="white"/>
</svg>
